<?xml version="1.0" encoding="UTF-8" standalone="no" ?>
<!DOCTYPE svg PUBLIC "-//W3C//DTD SVG 1.1//EN" "http://www.w3.org/Graphics/SVG/1.1/DTD/svg11.dtd">
<svg xmlns="http://www.w3.org/2000/svg" xmlns:xlink="http://www.w3.org/1999/xlink" version="1.1" width="1080" height="1080" viewBox="0 0 1080 1080" xml:space="preserve">
<desc>Created with Fabric.js 5.2.4</desc>
<defs>
</defs>
<rect x="0" y="0" width="100%" height="100%" fill="transparent"></rect>
<g transform="matrix(1 0 0 1 540 540)" id="1cefa19a-c289-44bf-bf41-504244c4f62c"  >
<rect style="stroke: none; stroke-width: 1; stroke-dasharray: none; stroke-linecap: butt; stroke-dashoffset: 0; stroke-linejoin: miter; stroke-miterlimit: 4; fill: rgb(255,255,255); fill-rule: nonzero; opacity: 1; visibility: hidden;" vector-effect="non-scaling-stroke"  x="-540" y="-540" rx="0" ry="0" width="1080" height="1080" />
</g>
<g transform="matrix(0 0 0 0 0 0)" id="17155c5e-b523-4927-936a-274211ba329d"  >
</g>
<g transform="matrix(14.46 0 0 14.46 540 540)"  >
<path style="stroke: rgb(1,170,193); stroke-width: 0.29; stroke-dasharray: none; stroke-linecap: butt; stroke-dashoffset: 0; stroke-linejoin: miter; stroke-miterlimit: 10; fill: rgb(1,170,193); fill-rule: nonzero; opacity: 1;" vector-effect="non-scaling-stroke"  transform=" translate(-31.63, -36.7)" d="M 20.091 55.872 C 11.914 68.14 10.952 68.54 7.855 71.576 C 5.375 74.008 3.535 73.30999999999999 3.535 73.30999999999999 C 3.535 73.30999999999999 -4.632999999999999 72.60099999999998 3.865 69.15399999999998 C 12.363 65.70699999999998 29.25 37.394 30.112 35.55 C 30.973999999999997 33.705999999999996 30.212 34.348 30.212 34.348 L 23.92 45.009 C 23.92 45.009 18.828000000000003 53.527 12.996000000000002 52.284 C 7.163000000000002 51.041 6.743000000000002 46.652 6.743000000000002 46.652 C 6.743000000000002 46.652 5.562000000000002 41.423 8.448000000000002 39.827 C 10.562000000000001 38.657 9.286000000000001 38.632999999999996 9.286000000000001 38.632999999999996 L 7.192000000000002 38.221 C 7.192000000000002 38.221 -0.3509999999999982 36.150999999999996 1.652000000000002 29.495999999999995 C 3.655000000000002 22.840999999999994 11.233 23.282999999999994 13.999000000000002 24.003999999999994 C 16.765000000000004 24.724999999999994 28.870000000000005 29.615999999999993 30.474000000000004 30.057999999999993 C 32.078 30.499999999999993 29.031000000000002 28.854999999999993 29.031000000000002 28.854999999999993 C 29.031000000000002 28.854999999999993 18.439 22.510999999999992 14.439000000000002 20.586999999999993 C 10.439000000000004 18.662999999999993 9.96 12.890999999999993 9.96 12.890999999999993 C 9.96 12.890999999999993 9.72 8.200999999999993 14.110000000000001 6.456999999999993 C 18.5 4.712999999999992 21.442 6.494999999999993 22.597 7.603999999999993 C 23.752000000000002 8.712999999999994 23.008000000000003 7.9589999999999925 23.55 5.643999999999993 C 24.092 3.3289999999999935 25.705000000000002 2.036999999999993 25.705000000000002 2.036999999999993 C 25.705000000000002 2.036999999999993 27.488 0.113 30.534 0.013 C 33.58 -0.08700000000000001 34.342 0.35300000000000004 36.938 3.6 C 39.534000000000006 6.847 38.04 12.86 38.04 12.86 L 36.487 17.869999999999997 C 36.487 17.869999999999997 34.522 24.705 33.38 27.561 C 32.23800000000001 30.417 33.120000000000005 29.215 33.120000000000005 29.215 L 34.242000000000004 27.211 L 37.93000000000001 18.391 C 37.93000000000001 18.391 40.33500000000001 11.376999999999999 45.18600000000001 8.290999999999999 C 50.037000000000006 5.204999999999998 53.403000000000006 7.969999999999999 53.403000000000006 7.969999999999999 C 53.403000000000006 7.969999999999999 55.709 9.273 56.39000000000001 12.739999999999998 C 57.07100000000001 16.206999999999997 55.98800000000001 18.602999999999998 54.57600000000001 19.805 C 53.16400000000001 21.007 54.516000000000005 19.113 57.403000000000006 20.105999999999998 C 60.290000000000006 21.098999999999997 60.319 21.459 62.24300000000001 23.924999999999997 C 64.16700000000002 26.390999999999995 62.75300000000001 30.147999999999996 62.75300000000001 30.147999999999996 C 62.75300000000001 30.147999999999996 61.70100000000001 33.034 57.553000000000004 34.507999999999996 C 53.405 35.98199999999999 48.653000000000006 34.507999999999996 48.653000000000006 34.507999999999996 C 48.653000000000006 34.507999999999996 42.90200000000001 33.06399999999999 38.071000000000005 31.861999999999995 C 33.24 30.659999999999997 34.00300000000001 31.420999999999996 34.00300000000001 31.420999999999996 C 34.00300000000001 31.420999999999996 34.68300000000001 31.660999999999994 41.74000000000001 34.346999999999994 C 48.79700000000001 37.032999999999994 52.32200000000001 39.077 52.32200000000001 39.077 C 52.32200000000001 39.077 56.85200000000001 41.443 57.09200000000001 46.534 C 57.332000000000015 51.625 53.36400000000001 53.147999999999996 53.36400000000001 53.147999999999996 C 53.36400000000001 53.147999999999996 52.72200000000001 53.549 49.67600000000001 53.989999999999995 C 46.63000000000001 54.43099999999999 44.22500000000001 51.986 44.22500000000001 51.986 C 44.22500000000001 51.986 45.647000000000006 55.672999999999995 41.86000000000001 59.281 C 38.07300000000001 62.889 33.983000000000004 60.724 33.983000000000004 60.724 C 33.983000000000004 60.724 30.014000000000003 58.138 29.232000000000003 53.568 C 28.450000000000003 48.998 31.698000000000004 34.80799999999999 31.698000000000004 34.80799999999999 C 31.698000000000004 34.80799999999999 28.578000000000003 43.141999999999996 20.091000000000005 55.87199999999999 z M 6.833 34.537 C 8.427 36.400999999999996 12.846 37.452999999999996 12.846 37.452999999999996 M 11.914 38.05499999999999 C 11.914 38.05499999999999 10.350999999999999 39.257999999999996 9.99 41.93299999999999 M 9.268 31.06 C 9.268 31.06 12.315000000000001 34.748 17.727 35.83 M 16.203 36.655 C 16.203 36.655 12.433 41.214 12.844999999999999 46.773 M 11.915 27.172000000000004 C 11.915 27.172000000000004 12.937 30.659000000000006 21.595 34.537000000000006 M 20.090999999999998 34.947 C 20.090999999999998 34.947 17.165 41.482 18.366999999999997 46.292 M 24.1 33.665 C 24.1 33.665 22.176000000000002 36.510999999999996 23.259 40.159 M 30.193 31.259999999999998 L 11.914000000000001 38.055 M 18.078000000000003 29.095 C 18.078000000000003 29.095 20.867000000000004 32.185 25.469 33.016 M 40.281 54.81399999999999 C 41.817 52.90299999999999 42.031 48.36399999999999 42.031 48.36399999999999 M 42.794 49.16799999999999 C 42.794 49.16799999999999 44.266 50.480999999999995 46.962999999999994 50.337999999999994 M 36.41199999999999 53.06699999999999 C 36.41199999999999 53.06699999999999 39.46999999999999 49.388999999999996 39.52899999999999 43.870999999999995 M 40.62299999999999 45.214 C 40.62299999999999 45.214 45.80299999999999 48.071 51.18799999999999 46.634 M 32.1 51.189 C 32.1 51.189 35.337 49.537 37.54 40.309 M 38.223 41.71 C 38.223 41.71 45.187 43.372 49.69 41.297000000000004 M 36.218 38.01 C 36.218 38.01 39.372 39.372 42.755 37.631 M 32.723 32.47 L 42.793 49.169 M 32.846000000000004 44.775999999999996 C 32.846000000000004 44.775999999999996 35.365 41.461999999999996 35.326 36.784 M 28.473 6.172 C 26.599999999999998 7.754 25.523 12.168 25.523 12.168 M 24.927 11.232999999999999 C 24.927 11.232999999999999 23.733 9.662999999999998 21.059 9.287999999999998 M 31.936 8.625999999999998 C 31.936 8.625999999999998 28.231 11.651999999999997 27.119 17.058 M 26.302 15.53 C 26.302 15.53 21.764 11.734 16.201999999999998 12.116 M 35.809 11.294 C 35.809 11.294 32.315999999999995 12.296000000000001 28.389999999999997 20.934 M 27.987999999999996 19.428 C 27.987999999999996 19.428 21.469999999999995 16.466 16.652999999999995 17.641000000000002 M 29.247999999999998 23.444000000000003 C 29.247999999999998 23.444000000000003 26.412999999999997 21.504 22.758999999999997 22.566000000000003 M 31.618999999999996 29.550000000000004 L 24.926999999999996 11.233000000000004 M 33.852 17.446000000000005 C 33.852 17.446000000000005 30.745999999999995 20.218000000000004 29.891 24.816000000000006 M 57.295 24.716000000000005 C 55.555 22.986000000000004 51.065 22.296000000000006 51.065 22.296000000000006 M 51.945 21.621000000000006 C 51.945 21.621000000000006 53.405 20.296000000000006 53.548 17.601000000000006 M 55.15 28.379000000000005 C 55.15 28.379000000000005 51.814 24.950000000000006 46.332 24.311000000000007 M 47.784 23.365000000000006 C 47.784 23.365000000000006 51.171 18.515000000000008 50.309 13.007000000000005 M 52.829 32.46900000000001 C 52.829 32.46900000000001 51.526 29.07500000000001 42.581 25.913000000000007 M 44.047000000000004 25.381000000000007 C 44.047000000000004 25.381000000000007 46.432 18.631000000000007 44.844 13.935000000000008 M 40.156 26.985000000000007 C 40.156 26.985000000000007 41.842 23.992000000000008 40.467999999999996 20.444000000000006 M 34.278 29.877000000000006 L 51.945 21.621000000000006 M 46.528999999999996 31.051000000000005 C 46.528999999999996 31.051000000000005 43.498999999999995 28.197000000000006 38.842999999999996 27.744000000000007" stroke-linecap="round" />
</g>
</svg>